<svg width="76" height="75" viewBox="0 0 76 75" fill="none" xmlns="http://www.w3.org/2000/svg">
<path d="M75.7293 61.8953C75.5592 61.1293 75.2315 60.4071 74.767 59.7748C74.3024 59.1424 73.7113 58.6138 73.0312 58.2225L56.3057 46.7943C55.4548 46.2053 54.4446 45.8899 53.4098 45.8902C52.6203 45.8873 51.8414 46.0715 51.1367 46.4275C50.432 46.7835 49.8217 47.3013 49.3555 47.9385L45.0188 54.0835C44.7112 54.568 44.5585 55.1346 44.5809 55.708C42.914 55.9481 38.111 55.8068 30.2144 47.9102C22.5862 40.2962 18.9134 34.6881 19.4361 31.2271C19.5175 31.1739 19.5933 31.1123 19.6621 31.0435C20.044 30.9563 20.4043 30.793 20.7216 30.5632L26.7111 26.0287C27.7639 25.2103 28.452 24.0103 28.6265 22.6884C28.801 21.3665 28.4478 20.029 27.6435 18.9655L15.6644 2.62142C13.3618 -0.514619 10.6495 -0.839513 7.73952 1.66084C5.34421 3.92292 3.27173 6.504 1.58046 9.3314C0.905657 10.4675 0.604272 11.7867 0.718759 13.1031C-0.302252 18.0116 -0.234745 23.0843 0.916527 27.964C3.1061 38.2055 9.01089 48.0515 18.4614 57.2054C34.2828 72.5182 48.1266 74.8067 55.0484 74.8067C57.826 74.8838 60.5939 74.4479 63.2134 73.5212C64.4712 73.5471 65.709 73.2033 66.7733 72.5324C69.5473 70.7485 72.062 68.5904 74.2461 66.119C74.7796 65.5611 75.1879 64.8957 75.4437 64.1674C75.6995 63.439 75.7969 62.6643 75.7293 61.8953ZM72.0706 64.3532C70.1035 66.5636 67.8464 68.4976 65.3606 70.1027C65.1082 70.2481 64.8435 70.371 64.5695 70.4699C62.2702 69.5763 60.1433 68.2906 58.2834 66.67C58.1668 66.5249 58.0227 66.4043 57.8593 66.315C57.696 66.2258 57.5166 66.1697 57.3315 66.15C57.1464 66.1303 56.9592 66.1474 56.7808 66.2002C56.6023 66.2531 56.4361 66.3407 56.2916 66.458C56.0026 66.6932 55.8182 67.0329 55.7785 67.4033C55.7389 67.7737 55.8471 68.1448 56.0797 68.4358C57.2636 69.6959 58.6598 70.7383 60.2045 71.5153C58.5089 71.8683 56.7804 72.0388 55.0484 72.0238C48.6069 72.0238 35.54 69.8343 20.4249 55.2277C-1.10353 34.3773 2.97896 15.6741 3.47338 13.6682C3.51577 13.4822 3.51577 13.2891 3.47338 13.1031C3.37981 12.3111 3.55385 11.5105 3.9678 10.8288C5.50523 8.29508 7.36679 5.97286 9.50531 3.92101C10.0066 3.39982 10.6681 3.06163 11.3841 2.96043C11.596 2.96043 12.2458 2.96043 13.3053 4.37306L25.2844 20.6889C25.6333 21.1516 25.7912 21.7305 25.7255 22.3063C25.6598 22.882 25.3754 23.4105 24.9312 23.7826L19.0123 28.2748H18.8993C17.3132 27.124 15.8714 25.7865 14.6049 24.2911C14.5038 24.1353 14.373 24.0009 14.2199 23.8956C14.0669 23.7904 13.8946 23.7162 13.713 23.6775C13.5313 23.6388 13.3438 23.6363 13.1611 23.6701C12.9784 23.7039 12.8042 23.7733 12.6484 23.8744C12.4926 23.9755 12.3582 24.1063 12.2529 24.2594C12.1476 24.4124 12.0735 24.5847 12.0348 24.7663C11.9961 24.948 11.9936 25.1355 12.0274 25.3182C12.0612 25.5008 12.1306 25.6751 12.2317 25.8309C13.5439 27.4756 15.0687 28.9387 16.7662 30.1818C15.6361 34.787 19.2101 40.9319 28.2226 49.9586C35.3988 57.1206 40.6255 58.6321 43.7615 58.6321C44.7604 58.6684 45.7534 58.465 46.6574 58.0388C46.8447 57.9341 47.0056 57.788 47.128 57.6118C47.2504 57.4356 47.331 57.2337 47.3637 57.0217C47.3811 56.763 47.3811 56.5035 47.3637 56.2448C47.3493 56.0378 47.3493 55.8302 47.3637 55.6232L51.6016 49.6195C51.9666 49.179 52.4817 48.8891 53.0476 48.8056C53.6136 48.7222 54.1904 48.8511 54.667 49.1675L71.3784 60.5957C72.2966 61.2314 72.791 61.8247 72.8758 62.3615C72.8802 63.1055 72.5908 63.8212 72.0706 64.3532Z" fill="#E30611"/>
<path d="M36.2883 16.3368C41.6654 17.9809 46.5596 20.9135 50.5454 24.8796C54.5312 28.8457 57.488 33.7254 59.1587 39.0943C59.252 39.3919 59.4411 39.6503 59.6966 39.8292C59.9522 40.0081 60.2597 40.0974 60.5713 40.0831C60.7118 40.1044 60.8547 40.1044 60.9951 40.0831C61.3528 39.9724 61.6519 39.7243 61.8267 39.3932C62.0016 39.0621 62.0378 38.6751 61.9275 38.3173C60.1218 32.5066 56.9229 27.2256 52.6092 22.9341C48.2956 18.6426 42.9981 15.4709 37.1782 13.6952C36.8204 13.5898 36.4355 13.6301 36.1073 13.8074C35.7791 13.9847 35.5344 14.2846 35.4266 14.6417C35.3334 14.9808 35.3701 15.3424 35.5295 15.6559C35.6888 15.9694 35.9594 16.2122 36.2883 16.3368Z" fill="#E30611"/>
<path d="M38.1681 5.92563C46.1797 7.82589 53.4641 12.0188 59.1313 17.992C64.7984 23.9652 68.6028 31.46 70.0794 39.5603C70.1396 39.8894 70.3146 40.1865 70.5733 40.3986C70.832 40.6107 71.1575 40.7241 71.492 40.7187H71.7463C71.9291 40.6863 72.1036 40.6182 72.2601 40.5183C72.4165 40.4184 72.5517 40.2886 72.658 40.1365C72.7643 39.9843 72.8395 39.8127 72.8794 39.6314C72.9193 39.4501 72.9231 39.2627 72.8905 39.08C71.3353 30.4239 67.2887 22.4094 61.2467 16.0187C55.2048 9.62792 47.4298 5.13846 38.8744 3.10037C38.6889 3.05399 38.4961 3.04459 38.307 3.07274C38.1178 3.10088 37.9361 3.16602 37.7721 3.2644C37.6082 3.36279 37.4652 3.4925 37.3513 3.64614C37.2375 3.79978 37.155 3.97433 37.1087 4.15984C37.0623 4.34535 37.0529 4.53816 37.081 4.7273C37.1092 4.91644 37.1743 5.0982 37.2727 5.26217C37.3711 5.42613 37.5008 5.56912 37.6544 5.68296C37.8081 5.7968 37.9826 5.87925 38.1681 5.92563Z" fill="#E30611"/>
</svg>
